<svg width="238" height="214" viewBox="0 0 238 214" fill="none" xmlns="http://www.w3.org/2000/svg">
<g clip-path="url(#clip0_153_236)">
<path d="M223.009 28.9927C209.603 11.3757 188.387 0 164.536 0H44.0557C25.0164 0 8.7844 12.0819 2.65442 28.9927C0.93573 33.688 0 38.746 0 44.033C0 49.32 0.93573 54.378 2.65442 59.0733C8.7844 75.9841 25.0164 88.066 44.0557 88.066C44.4376 88.066 44.8004 88.066 45.1633 88.0469V214H74.1518V88.066H104.363V214H133.351V139.944C142.804 144.391 153.364 146.872 164.517 146.872C205.097 146.872 237.981 113.986 237.981 73.4265C238 56.7257 232.424 41.3227 223.009 28.9927ZM167.018 117.803C158.616 118.261 150.672 116.391 143.816 112.764C137.419 109.386 133.389 102.763 133.389 95.5098V88.0469H163.027C170.838 88.0469 177.54 82.0537 177.922 74.2663C178.323 65.9445 171.697 59.0733 163.447 59.0733H44.4949C36.3789 59.0733 29.4086 52.832 29.0458 44.7392C28.6448 36.0929 35.5386 28.9927 44.0748 28.9927H164.555C189.705 28.9927 209.966 49.8544 208.992 75.2016C208.076 97.9338 189.743 116.582 167.018 117.803Z" fill="url(#paint0_linear_153_236)"/>
</g>
<defs>
<linearGradient id="paint0_linear_153_236" x1="118.999" y1="262.927" x2="118.999" y2="7.28272" gradientUnits="userSpaceOnUse">
<stop stop-color="#274875"/>
<stop offset="0.274" stop-color="#345A8D"/>
<stop offset="0.7469" stop-color="#4876B0"/>
<stop offset="1" stop-color="#5080BE"/>
</linearGradient>
<clipPath id="clip0_153_236">
<rect width="238" height="214" fill="white"/>
</clipPath>
</defs>
</svg>
