<svg width="94" height="84" viewBox="0 0 94 84" fill="none" xmlns="http://www.w3.org/2000/svg">
<g clip-path="url(#clip0_276_7085)">
<path d="M87.4913 11.3803C82.2319 4.46522 73.9083 0 64.5508 0H17.284C9.81448 0 3.44631 4.74242 1.04138 11.3803C0.367107 13.2233 0 15.2087 0 17.284C0 19.3593 0.367107 21.3446 1.04138 23.1877C3.44631 29.8255 9.81448 34.568 17.284 34.568C17.4338 34.568 17.5762 34.568 17.7185 34.5605V84H29.0913V34.568H40.9436V84H52.3164V54.9311C56.025 56.6768 60.168 57.6507 64.5433 57.6507C80.4638 57.6507 93.365 44.7421 93.365 28.8216C93.3725 22.2661 91.1848 16.2201 87.4913 11.3803ZM65.5248 46.2405C62.2283 46.4203 59.1117 45.6861 56.422 44.2626C53.9122 42.9365 52.3314 40.3368 52.3314 37.4898V34.5605H63.959C67.0232 34.5605 69.6529 32.208 69.8027 29.1513C69.96 25.8848 67.3603 23.1877 64.1238 23.1877H17.4563C14.2722 23.1877 11.5376 20.7378 11.3953 17.5612C11.238 14.1673 13.9426 11.3803 17.2915 11.3803H64.5583C74.4253 11.3803 82.3742 19.569 81.9921 29.5184C81.6325 38.4413 74.4402 45.761 65.5248 46.2405Z" fill="white"/>
</g>
<defs>
<clipPath id="clip0_276_7085">
<rect width="93.3725" height="84" fill="white"/>
</clipPath>
</defs>
</svg>
